# Blender v2.78 (sub 0) OBJ File: ''
# www.blender.org
o Cylinder
v 2.993526 0.000000 -0.305090
v 3.790700 -0.000000 -0.000000
v 2.993526 -0.059520 -0.299228
v 2.993526 -0.116753 -0.281867
v 2.993526 -0.169499 -0.253673
v 2.993526 -0.215732 -0.215732
v 2.993526 -0.253673 -0.169499
v 2.993526 -0.281867 -0.116753
v 2.993526 -0.299228 -0.059520
v 2.993526 -0.305090 0.000000
v 2.993526 -0.299228 0.059520
v 2.993526 -0.281867 0.116753
v 2.993526 -0.253673 0.169499
v 2.993526 -0.215732 0.215732
v 2.993526 -0.169499 0.253674
v 2.993526 -0.116753 0.281867
v 2.993526 -0.059520 0.299228
v 2.993526 0.000000 0.305091
v 2.993526 0.059520 0.299228
v 2.993526 0.116753 0.281867
v 2.993526 0.169499 0.253673
v 2.993526 0.215732 0.215732
v 2.993526 0.253674 0.169499
v 2.993526 0.281867 0.116753
v 2.993526 0.299228 0.059520
v 2.993526 0.305091 -0.000000
v 2.993526 0.299228 -0.059520
v 2.993526 0.281867 -0.116753
v 2.993526 0.253673 -0.169499
v 2.993526 0.215731 -0.215732
v 2.993526 0.169499 -0.253674
v 2.993526 0.116753 -0.281867
v 2.993526 0.059520 -0.299228
v 0.000000 0.000000 -0.150000
v 2.999520 -0.000000 -0.150000
v -0.000000 -0.029264 -0.147118
v 2.999520 -0.029264 -0.147118
v -0.000000 -0.057403 -0.138582
v 2.999520 -0.057403 -0.138582
v -0.000000 -0.083336 -0.124720
v 2.999520 -0.083336 -0.124720
v -0.000000 -0.106066 -0.106066
v 2.999520 -0.106066 -0.106066
v -0.000000 -0.124720 -0.083336
v 2.999520 -0.124721 -0.083336
v -0.000000 -0.138582 -0.057403
v 2.999520 -0.138582 -0.057403
v -0.000000 -0.147118 -0.029264
v 2.999520 -0.147118 -0.029264
v -0.000000 -0.150000 -0.000000
v 2.999520 -0.150000 -0.000000
v -0.000000 -0.147118 0.029264
v 2.999520 -0.147118 0.029264
v -0.000000 -0.138582 0.057402
v 2.999520 -0.138582 0.057402
v -0.000000 -0.124720 0.083336
v 2.999520 -0.124721 0.083336
v -0.000000 -0.106066 0.106066
v 2.999520 -0.106066 0.106066
v -0.000000 -0.083336 0.124720
v 2.999520 -0.083336 0.124720
v -0.000000 -0.057402 0.138582
v 2.999520 -0.057403 0.138582
v -0.000000 -0.029264 0.147118
v 2.999520 -0.029264 0.147118
v 0.000000 0.000000 0.150000
v 2.999520 -0.000000 0.150000
v 0.000000 0.029264 0.147118
v 2.999520 0.029263 0.147118
v 0.000000 0.057403 0.138582
v 2.999520 0.057402 0.138582
v 0.000000 0.083336 0.124720
v 2.999520 0.083335 0.124720
v 0.000000 0.106066 0.106066
v 2.999520 0.106066 0.106066
v 0.000000 0.124720 0.083335
v 2.999520 0.124720 0.083335
v 0.000000 0.138582 0.057402
v 2.999520 0.138582 0.057402
v 0.000000 0.147118 0.029263
v 2.999520 0.147118 0.029263
v 0.000000 0.150000 -0.000000
v 2.999520 0.150000 -0.000000
v 0.000000 0.147118 -0.029264
v 2.999520 0.147118 -0.029264
v 0.000000 0.138582 -0.057403
v 2.999520 0.138582 -0.057403
v 0.000000 0.124720 -0.083336
v 2.999520 0.124720 -0.083336
v 0.000000 0.106066 -0.106066
v 2.999520 0.106066 -0.106066
v 0.000000 0.083335 -0.124721
v 2.999520 0.083335 -0.124721
v 0.000000 0.057402 -0.138582
v 2.999520 0.057402 -0.138582
v 0.000000 0.029263 -0.147118
v 2.999520 0.029263 -0.147118
vt 0.0104 0.1771
vt 0.2718 0.2500
vt 0.0000 0.2254
vt 0.0000 0.2746
vt 0.0104 0.3229
vt 0.0309 0.3684
vt 0.0607 0.4094
vt 0.0986 0.4442
vt 0.1431 0.4715
vt 0.1925 0.4904
vt 0.2451 0.5000
vt 0.2986 0.5000
vt 0.3511 0.4904
vt 0.4006 0.4715
vt 0.4451 0.4442
vt 0.4830 0.4094
vt 0.5127 0.3684
vt 0.5332 0.3229
vt 0.5437 0.2746
vt 0.5437 0.2254
vt 0.5332 0.1771
vt 0.5127 0.1316
vt 0.4830 0.0906
vt 0.4451 0.0558
vt 0.4006 0.0285
vt 0.3511 0.0096
vt 0.2986 0.0000
vt 0.2451 0.0000
vt 0.1925 0.0096
vt 0.1431 0.0285
vt 0.0986 0.0558
vt 0.0607 0.0906
vt 0.0309 0.1316
vt 0.5437 0.7254
vt 0.2986 1.0000
vt 0.0000 0.7746
vt 0.6085 0.7387
vt 0.5842 0.4917
vt 0.6085 0.4917
vt 0.5842 0.7387
vt 0.5623 0.4917
vt 0.5623 0.7387
vt 0.5437 0.4917
vt 1.0000 0.2470
vt 0.9781 0.0000
vt 1.0000 0.0000
vt 0.9781 0.2470
vt 0.9538 0.0000
vt 0.9538 0.2470
vt 0.9280 0.0000
vt 0.9280 0.2470
vt 0.9016 0.0000
vt 0.9016 0.2470
vt 0.8758 0.0000
vt 0.8758 0.2470
vt 0.8515 0.0000
vt 0.8515 0.2470
vt 0.8296 0.0000
vt 0.8296 0.2470
vt 0.8110 0.0000
vt 0.7513 0.4917
vt 0.7732 0.7387
vt 0.7513 0.7387
vt 0.7732 0.4917
vt 0.7975 0.7387
vt 0.7975 0.4917
vt 0.8233 0.7387
vt 0.8233 0.4917
vt 0.8497 0.7387
vt 0.8497 0.4917
vt 0.8755 0.7387
vt 0.8755 0.4917
vt 0.8998 0.7387
vt 0.8998 0.4917
vt 0.9217 0.7387
vt 0.9217 0.4917
vt 0.9403 0.7387
vt 0.7141 0.9857
vt 0.6922 0.7387
vt 0.7141 0.7387
vt 0.6922 0.9857
vt 0.6679 0.7387
vt 0.6679 0.9857
vt 0.6420 0.7387
vt 0.6420 0.9857
vt 0.6157 0.7387
vt 0.6157 0.9857
vt 0.5899 0.7387
vt 0.5899 0.9857
vt 0.5656 0.7387
vt 0.5656 0.9857
vt 0.5437 0.7387
vt 0.7513 0.7387
vt 0.7327 0.4917
vt 0.7513 0.4917
vt 0.7327 0.7387
vt 0.7108 0.4917
vt 0.7108 0.7387
vt 0.6865 0.4917
vt 0.6865 0.7387
vt 0.6607 0.4917
vt 0.5921 0.2184
vt 0.5735 0.0446
vt 0.7811 0.2013
vt 0.6607 0.7387
vt 0.6343 0.4917
vt 0.6343 0.7387
vt 0.7625 0.2733
vt 0.7811 0.4471
vt 0.5735 0.2904
vt 0.0000 0.7254
vt 0.0607 0.5906
vt 0.0104 0.6771
vt 0.0309 0.6316
vt 0.0986 0.5558
vt 0.2451 0.5000
vt 0.1431 0.5285
vt 0.1925 0.5096
vt 0.2986 0.5000
vt 0.4451 0.5558
vt 0.3511 0.5096
vt 0.4006 0.5285
vt 0.4830 0.5906
vt 0.5127 0.6316
vt 0.5332 0.6771
vt 0.5437 0.7746
vt 0.4830 0.9094
vt 0.5332 0.8229
vt 0.5127 0.8684
vt 0.4451 0.9442
vt 0.4006 0.9715
vt 0.3511 0.9904
vt 0.2451 1.0000
vt 0.1925 0.9904
vt 0.1431 0.9715
vt 0.0986 0.9442
vt 0.0607 0.9094
vt 0.0309 0.8684
vt 0.0104 0.8229
vt 0.5437 0.7387
vt 0.8110 0.2470
vt 0.9403 0.4917
vt 0.5437 0.9857
vt 0.7625 0.0274
vt 0.7811 0.0446
vt 0.7958 0.0647
vt 0.8059 0.0871
vt 0.8110 0.1108
vt 0.8110 0.1350
vt 0.8059 0.1588
vt 0.7958 0.1811
vt 0.7625 0.2184
vt 0.7406 0.2318
vt 0.7163 0.2411
vt 0.6905 0.2458
vt 0.6642 0.2458
vt 0.6383 0.2411
vt 0.6140 0.2318
vt 0.5735 0.2013
vt 0.5589 0.1811
vt 0.5488 0.1588
vt 0.5437 0.1350
vt 0.5437 0.1108
vt 0.5488 0.0871
vt 0.5589 0.0647
vt 0.5921 0.0274
vt 0.6140 0.0140
vt 0.6383 0.0047
vt 0.6642 0.0000
vt 0.6905 0.0000
vt 0.7163 0.0047
vt 0.7406 0.0140
vt 0.5921 0.4642
vt 0.5735 0.4471
vt 0.5589 0.4270
vt 0.5488 0.4046
vt 0.5437 0.3808
vt 0.5437 0.3566
vt 0.5488 0.3329
vt 0.5589 0.3105
vt 0.5921 0.2733
vt 0.6140 0.2598
vt 0.6383 0.2506
vt 0.6642 0.2458
vt 0.6905 0.2458
vt 0.7163 0.2506
vt 0.7406 0.2598
vt 0.7811 0.2904
vt 0.7958 0.3105
vt 0.8059 0.3329
vt 0.8110 0.3566
vt 0.8110 0.3808
vt 0.8059 0.4046
vt 0.7958 0.4270
vt 0.7625 0.4642
vt 0.7406 0.4777
vt 0.7163 0.4869
vt 0.6905 0.4917
vt 0.6642 0.4917
vt 0.6383 0.4869
vt 0.6140 0.4777
vn -0.5440 0.0000 -0.8391
vn 1.0000 0.0000 0.0000
vn -0.5440 -0.1637 -0.8229
vn -0.5440 -0.3211 -0.7752
vn -0.5440 -0.4661 -0.6977
vn -0.5440 -0.5933 -0.5933
vn -0.5440 -0.6977 -0.4661
vn -0.5440 -0.7752 -0.3211
vn -0.5440 -0.8229 -0.1637
vn -0.5440 -0.8391 0.0000
vn -0.5440 -0.8229 0.1637
vn -0.5440 -0.7752 0.3211
vn -0.5440 -0.6977 0.4661
vn -0.5440 -0.5933 0.5933
vn -0.5440 -0.4662 0.6977
vn -0.5440 -0.3211 0.7752
vn -0.5440 -0.1637 0.8229
vn -0.5440 0.0000 0.8391
vn -0.5440 0.1637 0.8229
vn -0.5440 0.3211 0.7752
vn -0.5440 0.4661 0.6977
vn -0.5440 0.5933 0.5933
vn -0.5440 0.6977 0.4662
vn -0.5440 0.7752 0.3211
vn -0.5440 0.8229 0.1637
vn -0.5440 0.8390 0.0000
vn -0.5440 0.8229 -0.1637
vn -0.5440 0.7752 -0.3211
vn -0.5440 0.6977 -0.4661
vn -0.5440 0.5933 -0.5933
vn -0.5440 0.4662 -0.6977
vn -0.5440 0.3211 -0.7752
vn -0.5440 0.1637 -0.8229
vn 0.6857 0.0000 -0.7279
vn -0.6857 -0.1420 -0.7139
vn -0.6857 0.0000 -0.7279
vn 0.6857 -0.1420 -0.7139
vn -0.6857 -0.2785 -0.6725
vn 0.6857 -0.2785 -0.6725
vn -0.6857 -0.4044 -0.6052
vn 0.6857 -0.4043 -0.6052
vn -0.6857 -0.5147 -0.5147
vn 0.6857 -0.5147 -0.5147
vn -0.6857 -0.6052 -0.4044
vn 0.6857 -0.6052 -0.4044
vn -0.6857 -0.6725 -0.2785
vn 0.6857 -0.6725 -0.2785
vn -0.6857 -0.7139 -0.1420
vn 0.6857 -0.7139 -0.1420
vn -0.6857 -0.7279 0.0000
vn 0.6857 -0.7279 0.0000
vn -0.6857 -0.7139 0.1420
vn 0.6857 -0.7139 0.1420
vn -0.6857 -0.6725 0.2785
vn 0.6857 -0.6725 0.2785
vn -0.6857 -0.6052 0.4044
vn 0.6857 -0.6052 0.4044
vn -0.6857 -0.5147 0.5147
vn 0.6857 -0.5147 0.5147
vn -0.6857 -0.4044 0.6052
vn 0.6857 -0.4043 0.6052
vn -0.6857 -0.2785 0.6725
vn 0.6857 -0.2785 0.6725
vn -0.6857 -0.1420 0.7139
vn 0.6857 -0.1420 0.7139
vn -0.6857 0.0000 0.7279
vn 0.6857 0.0000 0.7279
vn -0.6857 0.1420 0.7139
vn 0.6857 0.1420 0.7139
vn -0.6857 0.2785 0.6725
vn 0.6857 0.2785 0.6725
vn -0.6857 0.4044 0.6052
vn 0.6857 0.4043 0.6052
vn -0.6857 0.5147 0.5147
vn 0.6857 0.5147 0.5147
vn -0.6857 0.6052 0.4044
vn 0.6857 0.6052 0.4044
vn -0.6857 0.6725 0.2785
vn 0.6857 0.6725 0.2785
vn -0.6857 0.7139 0.1420
vn 0.6857 0.7139 0.1420
vn -0.6857 0.7279 0.0000
vn 0.6857 0.7279 0.0000
vn -0.6857 0.7139 -0.1420
vn 0.6857 0.7139 -0.1420
vn -0.6857 0.6725 -0.2785
vn 0.6857 0.6725 -0.2785
vn -0.6857 0.6052 -0.4044
vn 0.6857 0.6052 -0.4044
vn -0.6857 0.5147 -0.5147
vn 0.6857 0.5147 -0.5147
vn -0.6857 0.4044 -0.6052
vn 0.6857 0.4043 -0.6052
vn -0.6857 0.2785 -0.6725
vn 0.6857 0.2785 -0.6725
vn -0.6857 0.1420 -0.7139
vn 0.6857 0.1420 -0.7139
s 1
f 1/1/1 2/2/2 3/3/3
f 3/3/3 2/2/2 4/4/4
f 4/4/4 2/2/2 5/5/5
f 5/5/5 2/2/2 6/6/6
f 6/6/6 2/2/2 7/7/7
f 7/7/7 2/2/2 8/8/8
f 8/8/8 2/2/2 9/9/9
f 9/9/9 2/2/2 10/10/10
f 10/10/10 2/2/2 11/11/11
f 11/11/11 2/2/2 12/12/12
f 12/12/12 2/2/2 13/13/13
f 13/13/13 2/2/2 14/14/14
f 14/14/14 2/2/2 15/15/15
f 15/15/15 2/2/2 16/16/16
f 16/16/16 2/2/2 17/17/17
f 17/17/17 2/2/2 18/18/18
f 18/18/18 2/2/2 19/19/19
f 19/19/19 2/2/2 20/20/20
f 20/20/20 2/2/2 21/21/21
f 21/21/21 2/2/2 22/22/22
f 22/22/22 2/2/2 23/23/23
f 23/23/23 2/2/2 24/24/24
f 24/24/24 2/2/2 25/25/25
f 25/25/25 2/2/2 26/26/26
f 26/26/26 2/2/2 27/27/27
f 27/27/27 2/2/2 28/28/28
f 28/28/28 2/2/2 29/29/29
f 29/29/29 2/2/2 30/30/30
f 30/30/30 2/2/2 31/31/31
f 31/31/31 2/2/2 32/32/32
f 32/32/32 2/2/2 33/33/33
f 33/33/33 2/2/2 1/1/1
f 17/34/17 25/35/25 33/36/33
f 35/37/34 36/38/35 34/39/36
f 37/40/37 38/41/38 36/38/35
f 39/42/39 40/43/40 38/41/38
f 41/44/41 42/45/42 40/46/40
f 43/47/43 44/48/44 42/45/42
f 45/49/45 46/50/46 44/48/44
f 47/51/47 48/52/48 46/50/46
f 49/53/49 50/54/50 48/52/48
f 51/55/51 52/56/52 50/54/50
f 53/57/53 54/58/54 52/56/52
f 55/59/55 56/60/56 54/58/54
f 57/61/57 58/62/58 56/63/56
f 59/64/59 60/65/60 58/62/58
f 61/66/61 62/67/62 60/65/60
f 63/68/63 64/69/64 62/67/62
f 65/70/65 66/71/66 64/69/64
f 67/72/67 68/73/68 66/71/66
f 69/74/69 70/75/70 68/73/68
f 71/76/71 72/77/72 70/75/70
f 73/78/73 74/79/74 72/80/72
f 75/81/75 76/82/76 74/79/74
f 77/83/77 78/84/78 76/82/76
f 79/85/79 80/86/80 78/84/78
f 81/87/81 82/88/82 80/86/80
f 83/89/83 84/90/84 82/88/82
f 85/91/85 86/92/86 84/90/84
f 87/93/87 88/94/88 86/95/86
f 89/96/89 90/97/90 88/94/88
f 91/98/91 92/99/92 90/97/90
f 93/100/93 94/101/94 92/99/92
f 71/102/71 55/103/55 87/104/87
f 95/105/95 96/106/96 94/101/94
f 97/107/97 34/39/36 96/106/96
f 64/108/64 80/109/80 48/110/48
f 33/36/33 1/111/1 5/112/5
f 3/113/3 4/114/4 5/112/5
f 5/112/5 6/115/6 9/116/9
f 7/117/7 8/118/8 9/116/9
f 9/116/9 10/119/10 13/120/13
f 11/121/11 12/122/12 13/120/13
f 13/120/13 14/123/14 17/34/17
f 15/124/15 16/125/16 17/34/17
f 17/34/17 18/126/18 21/127/21
f 19/128/19 20/129/20 21/127/21
f 21/127/21 22/130/22 23/131/23
f 23/131/23 24/132/24 21/127/21
f 25/35/25 26/133/26 27/134/27
f 27/134/27 28/135/28 25/35/25
f 29/136/29 30/137/30 33/36/33
f 31/138/31 32/139/32 33/36/33
f 1/111/1 3/113/3 5/112/5
f 6/115/6 7/117/7 9/116/9
f 10/119/10 11/121/11 13/120/13
f 14/123/14 15/124/15 17/34/17
f 18/126/18 19/128/19 21/127/21
f 21/127/21 24/132/24 25/35/25
f 25/35/25 28/135/28 29/136/29
f 30/137/30 31/138/31 33/36/33
f 33/36/33 5/112/5 9/116/9
f 9/116/9 13/120/13 17/34/17
f 17/34/17 21/127/21 25/35/25
f 25/35/25 29/136/29 33/36/33
f 33/36/33 9/116/9 17/34/17
f 35/37/34 37/40/37 36/38/35
f 37/40/37 39/42/39 38/41/38
f 39/42/39 41/140/41 40/43/40
f 41/44/41 43/47/43 42/45/42
f 43/47/43 45/49/45 44/48/44
f 45/49/45 47/51/47 46/50/46
f 47/51/47 49/53/49 48/52/48
f 49/53/49 51/55/51 50/54/50
f 51/55/51 53/57/53 52/56/52
f 53/57/53 55/59/55 54/58/54
f 55/59/55 57/141/57 56/60/56
f 57/61/57 59/64/59 58/62/58
f 59/64/59 61/66/61 60/65/60
f 61/66/61 63/68/63 62/67/62
f 63/68/63 65/70/65 64/69/64
f 65/70/65 67/72/67 66/71/66
f 67/72/67 69/74/69 68/73/68
f 69/74/69 71/76/71 70/75/70
f 71/76/71 73/142/73 72/77/72
f 73/78/73 75/81/75 74/79/74
f 75/81/75 77/83/77 76/82/76
f 77/83/77 79/85/79 78/84/78
f 79/85/79 81/87/81 80/86/80
f 81/87/81 83/89/83 82/88/82
f 83/89/83 85/91/85 84/90/84
f 85/91/85 87/143/87 86/92/86
f 87/93/87 89/96/89 88/94/88
f 89/96/89 91/98/91 90/97/90
f 91/98/91 93/100/93 92/99/92
f 93/100/93 95/105/95 94/101/94
f 39/144/39 37/145/37 35/146/34
f 35/146/34 97/147/97 39/144/39
f 95/148/95 93/149/93 91/150/91
f 91/150/91 89/151/89 87/104/87
f 87/104/87 85/152/85 83/153/83
f 83/153/83 81/154/81 87/104/87
f 79/155/79 77/156/77 71/102/71
f 75/157/75 73/158/73 71/102/71
f 71/102/71 69/159/69 67/160/67
f 67/160/67 65/161/65 63/162/63
f 63/162/63 61/163/61 59/164/59
f 59/164/59 57/165/57 55/103/55
f 55/103/55 53/166/53 51/167/51
f 51/167/51 49/168/49 55/103/55
f 47/169/47 45/170/45 43/171/43
f 43/171/43 41/172/41 39/144/39
f 39/144/39 97/147/97 95/148/95
f 95/148/95 91/150/91 39/144/39
f 87/104/87 81/154/81 79/155/79
f 77/156/77 75/157/75 71/102/71
f 71/102/71 67/160/67 55/103/55
f 63/162/63 59/164/59 55/103/55
f 55/103/55 49/168/49 47/169/47
f 47/169/47 43/171/43 55/103/55
f 39/144/39 91/150/91 87/104/87
f 87/104/87 79/155/79 71/102/71
f 67/160/67 63/162/63 55/103/55
f 55/103/55 43/171/43 39/144/39
f 39/144/39 87/104/87 55/103/55
f 95/105/95 97/107/97 96/106/96
f 97/107/97 35/37/34 34/39/36
f 96/173/96 34/174/36 36/175/35
f 36/175/35 38/176/38 40/177/40
f 40/177/40 42/178/42 44/179/44
f 44/179/44 46/180/46 40/177/40
f 48/110/48 50/181/50 52/182/52
f 52/182/52 54/183/54 48/110/48
f 56/184/56 58/185/58 64/108/64
f 60/186/60 62/187/62 64/108/64
f 64/108/64 66/188/66 68/189/68
f 68/189/68 70/190/70 72/191/72
f 72/191/72 74/192/74 76/193/76
f 76/193/76 78/194/78 80/109/80
f 80/109/80 82/195/82 84/196/84
f 84/196/84 86/197/86 88/198/88
f 88/198/88 90/199/90 96/173/96
f 92/200/92 94/201/94 96/173/96
f 96/173/96 36/175/35 48/110/48
f 40/177/40 46/180/46 48/110/48
f 48/110/48 54/183/54 56/184/56
f 58/185/58 60/186/60 64/108/64
f 64/108/64 68/189/68 80/109/80
f 72/191/72 76/193/76 80/109/80
f 80/109/80 84/196/84 96/173/96
f 90/199/90 92/200/92 96/173/96
f 36/175/35 40/177/40 48/110/48
f 48/110/48 56/184/56 64/108/64
f 68/189/68 72/191/72 80/109/80
f 84/196/84 88/198/88 96/173/96
f 96/173/96 48/110/48 80/109/80
